<svg id="图层_1" data-name="图层 1" xmlns="http://www.w3.org/2000/svg" viewBox="0 0 149.98 196"><defs><style>.cls-1{fill:#e60012;}</style></defs><path class="cls-1" d="M120.32,64a122,122,0,0,1-36.75-6l36.75-25.22L157.09,58A125.16,125.16,0,0,1,120.32,64ZM155.59,0h-75A12.82,12.82,0,0,0,67.82,12.78V93.31a25.39,25.39,0,0,0,11.33-.75c10.35-3.52,19.45-24,41.17-24s21.75,20.61,21.75,36.75-2.39,58.32-15.88,81.16c0,0-4.62-32.28-19.81-30,0,0,10.07-11.76,10.55-39.29,0,0-4.63,31-20.44,39.2s-18.7-10.08-22.7-14.06a11.16,11.16,0,0,0-6-2.8v43.7A12.83,12.83,0,0,0,80.61,196h75a12.83,12.83,0,0,0,12.79-12.79V12.7A12.81,12.81,0,0,0,155.59,0Z" transform="translate(-18.39)"/><path class="cls-1" d="M86,118.77c12.31-5.74,19.17-21.09,19.81-25.72,0,0-10.54,17.26-22.35,21.74a54.5,54.5,0,0,0-15.69,9.8v8.1A67.68,67.68,0,0,1,86,118.77Z" transform="translate(-18.39)"/><path class="cls-1" d="M43,90c-13.57.49-24.61,16.15-24.61,16.15,9-2.08,25.49,1.28,27.33,15s11,16.31,11,16.31a48.34,48.34,0,0,1,11.08-12.84V93.27C60.23,92.41,51.93,89.68,43,90Z" transform="translate(-18.39)"/><path class="cls-1" d="M62,139.15a22.33,22.33,0,0,1,5.89.22v-6.64C64.26,136.4,62,139.15,62,139.15Z" transform="translate(-18.39)"/></svg>